#N canvas 647 126 1920 966 12;
#X obj 21 3 osc~ 200;
#X obj 369 137 bng 19 250 50 0 empty empty empty 0 -10 0 12 #fcfcfc #000000 #000000;
#X obj 685 168 cputime;
#X floatatom 685 192 5 0 0 0 - - - 0;
#X obj 685 125 bng 19 250 50 0 empty empty empty 0 -10 0 12 #fcfcfc #000000 #000000;
#X obj 731 134 bng 19 250 50 0 empty empty empty 0 -10 0 12 #fcfcfc #000000 #000000;
#X obj 685 59 t f f, f 7;
#X obj 685 28 bng 19 250 50 0 empty empty empty 0 -10 0 12 #fcfcfc #000000 #000000;
#X obj 369 306 snapshot~;
#X floatatom 369 330 5 0 0 0 - - - 0;
#X obj 312 263 tgl 19 0 empty empty empty 0 -10 0 12 #fcfcfc #000000 #000000 0 1;
#X obj 312 287 metro 30;
#X obj 21 251 output~;
#X msg 369 165 1;
#X obj 369 74 t f f;
#X obj 401 137 bng 19 250 50 0 empty empty empty 0 -10 0 12 #fcfcfc #000000 #000000;
#X msg 401 166 0;
#X obj 347 75 bng 19 250 50 0 empty empty empty 0 -10 0 12 #fcfcfc #000000 #000000;
#X obj 731 91 pipe 1500;
#X obj 347 16 tgl 19 0 empty empty empty 0 -10 0 12 #fcfcfc #000000 #000000 0 1;
#X obj 369 231 line~ 0 10;
#X msg 369 203 \$1 20;
#X obj 401 103 pipe 100;
#X obj 120 69 delread~ signal 30;
#X obj 120 100 *~ 0.97;
#X obj 490 305 delwrite~ signal;
#X floatatom 120 45 5 0 0 0 - - - 0;
#X obj 347 40 metro 1000;
#X obj 21 119 *~ 1;
#X text 71 121 one is for overall amplitude;
#X text 72 196 other one is for feedback;
#X text 749 20 This is something else for studying the logical time cpu-time \, timer object and so on;
#X obj 59 138 s~ signal;
#X obj 490 232 r~ signal;
#X obj 490 266 *~;
#X obj 460 185 pack 0 0;
#X obj 21 197 *~;
#X connect 0 0 28 0;
#X connect 1 0 13 0;
#X connect 2 0 3 0;
#X connect 3 0 6 0;
#X connect 3 0 2 0;
#X connect 4 0 2 0;
#X connect 5 0 2 1;
#X connect 6 0 4 0;
#X connect 6 1 18 0;
#X connect 7 0 6 0;
#X connect 8 0 9 0;
#X connect 10 0 11 0;
#X connect 11 0 8 0;
#X connect 13 0 21 0;
#X connect 13 0 35 0;
#X connect 14 0 1 0;
#X connect 14 1 22 0;
#X connect 15 0 16 0;
#X connect 16 0 21 0;
#X connect 16 0 35 1;
#X connect 17 0 14 0;
#X connect 18 0 5 0;
#X connect 19 0 27 0;
#X connect 20 0 8 0;
#X connect 20 0 34 1;
#X connect 21 0 20 0;
#X connect 22 0 15 0;
#X connect 23 0 24 0;
#X connect 24 0 28 0;
#X connect 26 0 23 0;
#X connect 27 0 17 0;
#X connect 28 0 32 0;
#X connect 28 0 36 0;
#X connect 33 0 34 0;
#X connect 34 0 25 0;
#X connect 36 0 12 0;
